<svg width="30" height="30" viewBox="0 0 30 30" fill="none" xmlns="http://www.w3.org/2000/svg">
	<path d="M16.9229 14.7172C19.4872 13.2977 23.7891 10.1528 23.7891 5.03906V3.51562C24.4352 3.51562 24.9609 2.98992 24.9609 2.34375V1.17188C24.9609 0.525703 24.4352 0 23.7891 0H6.21094C5.56477 0 5.03906 0.525703 5.03906 1.17188V2.34375C5.03906 2.98992 5.56477 3.51562 6.21094 3.51562V5.03906C6.21094 10.1528 10.5128 13.2977 13.0771 14.7173C13.1789 14.7736 13.2422 14.8819 13.2422 15C13.2422 15.1181 13.1789 15.2264 13.0771 15.2828C12.2981 15.714 11.5587 16.1937 10.8796 16.7085C10.6217 16.9039 10.5711 17.2714 10.7665 17.5294C10.8818 17.6814 11.0568 17.7614 11.2339 17.7614C11.3572 17.7614 11.4816 17.7226 11.5874 17.6424C12.2222 17.1613 12.9144 16.7123 13.6446 16.308C14.0698 16.0727 14.3499 15.6459 14.4039 15.1684C14.5907 15.1969 14.7897 15.2135 14.9999 15.2135C15.0104 15.2135 15.021 15.2135 15.0316 15.2134C15.2303 15.2118 15.4187 15.1951 15.5962 15.168C15.65 15.6457 15.9302 16.0727 16.3554 16.308C18.6939 17.6026 22.6172 20.4482 22.6172 24.9609V26.4844H21.1355C18.8395 23.7931 15.6337 23.6531 15 23.6531C11.6791 23.6531 9.56414 25.6917 8.86758 26.4844H7.38281V24.9609C7.38281 23.5467 7.77205 22.1843 8.53969 20.9118C8.70686 20.6347 8.61773 20.2746 8.34064 20.1074C8.06355 19.9403 7.70344 20.0294 7.53627 20.3065C6.65684 21.7642 6.21094 23.3302 6.21094 24.9609V26.4844C5.56477 26.4844 5.03906 27.0101 5.03906 27.6562V28.8281C5.03906 29.4743 5.56477 30 6.21094 30H23.7891C24.4352 30 24.9609 29.4743 24.9609 28.8281V27.6562C24.9609 27.0101 24.4352 26.4844 23.7891 26.4844V24.9609C23.7891 19.8472 19.4872 16.7023 16.9229 15.2827C16.8211 15.2264 16.7578 15.1181 16.7578 15C16.7578 14.8819 16.8211 14.7736 16.9229 14.7172ZM15 24.8249C15.4743 24.8249 17.6346 24.9168 19.4821 26.4844H10.5437C11.4513 25.7261 12.9586 24.8249 15 24.8249ZM23.7898 28.8281C23.7898 28.8281 23.7896 28.8281 23.7891 28.8281H6.21094V27.6562H23.7891L23.7898 28.8281ZM6.21094 1.17188H23.7891L23.7898 2.34375C23.7898 2.34375 23.7896 2.34375 23.7891 2.34375H6.21094V1.17188ZM7.38281 3.51562H22.6172V5.03906C22.6172 6.23344 22.3423 7.31098 21.8947 8.27396C20.8507 8.03637 19.7825 7.91602 18.7125 7.91602C17.4012 7.91602 16.0958 8.09607 14.8326 8.45115C13.673 8.77723 12.4743 8.94258 11.2699 8.94258C10.2576 8.94258 9.24709 8.82387 8.26184 8.59248C7.72271 7.55033 7.38281 6.36697 7.38281 5.03906V3.51562ZM15.0222 14.0416C14.416 14.0465 13.9379 13.8539 13.6441 13.6917C12.3132 12.955 10.4696 11.7156 9.12762 9.95291C9.83625 10.06 10.5527 10.1145 11.2699 10.1145C12.5815 10.1145 13.8869 9.93439 15.1497 9.57932C16.3097 9.25324 17.5083 9.08789 18.7124 9.08789C19.581 9.08789 20.4482 9.17455 21.3 9.34523C19.9467 11.4338 17.8346 12.873 16.3557 13.6917C16.0716 13.8486 15.6094 14.037 15.0222 14.0416Z" fill="black"/>
	<path d="M15 18.8608C15.3236 18.8608 15.5859 18.5985 15.5859 18.2749V17.689C15.5859 17.3654 15.3236 17.103 15 17.103C14.6764 17.103 14.4141 17.3654 14.4141 17.689V18.2749C14.4141 18.5985 14.6764 18.8608 15 18.8608Z" fill="black"/>
	<path d="M14.4141 21.55C14.4141 21.8737 14.6764 22.136 15 22.136C15.3236 22.136 15.5859 21.8737 15.5859 21.55V20.9641C15.5859 20.6405 15.3236 20.3782 15 20.3782C14.6764 20.3782 14.4141 20.6405 14.4141 20.9641V21.55Z" fill="black"/>
	<path d="M9.47852 19.3215C9.80212 19.3215 10.0645 19.0592 10.0645 18.7356C10.0645 18.412 9.80212 18.1497 9.47852 18.1497C9.15491 18.1497 8.89258 18.412 8.89258 18.7356C8.89258 19.0592 9.15491 19.3215 9.47852 19.3215Z" fill="black"/>
</svg>