<svg width="30" height="30" viewBox="0 0 30 30" fill="none" xmlns="http://www.w3.org/2000/svg">
												<path d="M27.3279 5.18034C23.2003 4.04936 19.0484 2.28833 15.3211 0.0876707C15.1231 -0.0292236 14.8774 -0.0292236 14.6795 0.0876707C10.8447 2.35155 6.91712 4.01731 2.6723 5.18034C2.39809 5.2554 2.20801 5.50465 2.20801 5.78901V12.237C2.20801 18.877 5.27122 23.2722 7.84102 25.7901C10.6076 28.5009 13.8302 30 15.0003 30C16.1702 30 19.3929 28.5009 22.1594 25.7901C24.7292 23.2723 27.7922 18.8771 27.7922 12.237V5.78895C27.7922 5.50465 27.6021 5.2554 27.3279 5.18034ZM26.5301 12.2369C26.5301 18.4387 23.673 22.5399 21.2761 24.8885C18.5555 27.5542 15.6468 28.7378 15.0003 28.7378C14.3538 28.7378 11.4449 27.5542 8.72426 24.8885C6.32737 22.5399 3.47017 18.4387 3.47017 12.2369V6.26801C7.52942 5.11547 11.3098 3.50702 15.0004 1.36232C18.5989 3.45013 22.5678 5.13856 26.5301 6.26778V12.2369Z" fill="black"/>
												<path d="M9.40689 6.19731C9.27915 5.873 8.91277 5.71368 8.58839 5.84148C7.46105 6.28567 6.30394 6.69454 5.14924 7.05677C4.88609 7.13938 4.70703 7.38313 4.70703 7.65887V10.0958C4.70703 10.4444 4.98963 10.7269 5.33808 10.7269C5.68654 10.7269 5.96914 10.4444 5.96914 10.0958V8.12007C7.00501 7.78491 8.03978 7.41419 9.05105 7.01569C9.37536 6.88802 9.53468 6.52163 9.40689 6.19731Z" fill="black"/>
												<path d="M10.6052 6.31707C10.6898 6.31707 10.7758 6.30001 10.8582 6.26404L10.8698 6.259C11.1891 6.11908 11.3329 5.74742 11.193 5.42826C11.0529 5.10898 10.6792 4.96455 10.3602 5.10435L10.35 5.10875C10.0306 5.24826 9.88633 5.61963 10.0258 5.93896C10.1294 6.17603 10.3617 6.31707 10.6052 6.31707Z" fill="black"/>
												<path d="M22.519 20.3487C22.2274 20.1581 21.8363 20.24 21.6455 20.5318C21.1255 21.3277 20.5154 22.0899 19.832 22.797C19.2699 23.3783 18.6609 23.9202 18.0218 24.4074C17.7447 24.6187 17.6914 25.0147 17.9027 25.2919C18.0269 25.4547 18.2148 25.5404 18.4049 25.5404C18.5384 25.5404 18.6729 25.4982 18.7871 25.411C19.4765 24.8854 20.1333 24.301 20.7393 23.6742C21.4782 22.9099 22.1386 22.0849 22.7021 21.2221C22.8928 20.9303 22.8107 20.5393 22.519 20.3487Z" fill="black"/>
												<path d="M16.5563 25.3971L16.5201 25.4184C16.2185 25.5931 16.1155 25.9791 16.2901 26.2807C16.4071 26.4828 16.6189 26.5957 16.8368 26.5957C16.944 26.5957 17.0529 26.5683 17.1523 26.5106L17.1941 26.4861C17.4949 26.3099 17.5959 25.9234 17.4198 25.6226C17.2435 25.322 16.8569 25.2211 16.5563 25.3971Z" fill="black"/>
												<path d="M10.6983 13.7121C10.3108 13.3246 9.79549 13.1113 9.2474 13.1113C8.69932 13.1113 8.18393 13.3246 7.79627 13.7121C6.99629 14.5123 6.99629 15.8142 7.79627 16.6143L11.5226 20.3405C11.9101 20.7279 12.4255 20.9413 12.9736 20.9413C13.5218 20.9413 14.0371 20.7279 14.4247 20.3404L22.2036 12.5614C23.0035 11.761 23.0035 10.4593 22.2035 9.65941C21.816 9.27187 21.3006 9.05859 20.7524 9.05859C20.2043 9.05859 19.689 9.27193 19.3014 9.65941L12.9735 15.9872L10.6983 13.7121ZM20.1939 10.5519C20.343 10.4028 20.5414 10.3207 20.7525 10.3207C20.9637 10.3207 21.162 10.4028 21.3112 10.5519C21.6191 10.8598 21.6191 11.361 21.3111 11.6691L13.5322 19.4479C13.3831 19.5971 13.1847 19.6792 12.9736 19.6792C12.7626 19.6792 12.5641 19.5971 12.4149 19.4479L8.68871 15.7219C8.38069 15.4138 8.38069 14.9126 8.6886 14.6047C8.83777 14.4556 9.03623 14.3734 9.24734 14.3734C9.45846 14.3734 9.6568 14.4555 9.80592 14.6046L12.5273 17.326C12.6457 17.4443 12.8061 17.5108 12.9735 17.5108C13.141 17.5108 13.3014 17.4444 13.4197 17.326L20.1939 10.5519Z" fill="black"/>
											</svg>