<svg width="32" height="32" viewBox="0 0 32 32" fill="none" xmlns="http://www.w3.org/2000/svg">
	<path d="M16 6C12.2031 6 8.78125 8.01562 6.90625 11.25C4.98438 14.5312 4.98438 18.5156 6.90625 21.75C8.78125 25.0312 12.2031 27 16 27C19.75 27 23.1719 25.0312 25.0469 21.75C26.9688 18.5156 26.9688 14.5312 25.0469 11.25C23.1719 8.01562 19.75 6 16 6ZM16 28.5C11.6875 28.5 7.75 26.25 5.59375 22.5C3.4375 18.7969 3.4375 14.25 5.59375 10.5C7.75 6.79688 11.6875 4.5 16 4.5C20.2656 4.5 24.2031 6.79688 26.3594 10.5C28.5156 14.25 28.5156 18.7969 26.3594 22.5C24.2031 26.25 20.2656 28.5 16 28.5ZM12.4375 12.9844C12.7188 12.7031 13.2344 12.7031 13.5156 12.9844L16 15.4688L18.4375 12.9844C18.7188 12.7031 19.2344 12.7031 19.5156 12.9844C19.7969 13.2656 19.7969 13.7812 19.5156 14.0625L17.0312 16.5L19.5156 18.9844C19.7969 19.2656 19.7969 19.7812 19.5156 20.0625C19.2344 20.3438 18.7188 20.3438 18.4375 20.0625L16 17.5781L13.5156 20.0625C13.2344 20.3438 12.7188 20.3438 12.4375 20.0625C12.1562 19.7812 12.1562 19.2656 12.4375 18.9844L14.9219 16.5L12.4375 14.0625C12.1562 13.7812 12.1562 13.2656 12.4375 12.9844Z"
	fill="#6F59E0" />
</svg>