<svg width="32" height="32" viewBox="0 0 32 32" fill="none" xmlns="http://www.w3.org/2000/svg">
	<path d="M24.4688 6.14062L18.8438 11.8125L21.1875 14.2031L26.8594 8.53125C27 8.39062 27 8.15625 26.8594 8.01562L24.9844 6.14062C24.8438 6 24.6094 6 24.4688 6.14062ZM6.09375 24.5156C5.95312 24.6562 5.95312 24.8906 6.09375 25.0312L7.96875 26.9062C8.10938 27.0469 8.34375 27.0469 8.48438 26.9062L20.1562 15.2344L17.7656 12.8438L6.09375 24.5156ZM23.3906 5.10938C24.1406 4.35938 25.3125 4.35938 26.0625 5.10938L27.8906 6.9375C28.6406 7.6875 28.6406 8.85938 27.8906 9.60938L9.5625 27.9375C8.8125 28.6875 7.64062 28.6875 6.89062 27.9375L5.0625 26.1094C4.3125 25.3594 4.3125 24.1875 5.0625 23.4375L23.3906 5.10938ZM9 8.25V10.5H11.25C11.625 10.5 12 10.875 12 11.25C12 11.6719 11.625 12 11.25 12H9V14.25C9 14.6719 8.625 15 8.25 15C7.82812 15 7.5 14.6719 7.5 14.25V12H5.25C4.82812 12 4.5 11.6719 4.5 11.25C4.5 10.875 4.82812 10.5 5.25 10.5H7.5V8.25C7.5 7.875 7.82812 7.5 8.25 7.5C8.625 7.5 9 7.875 9 8.25ZM24.75 19.5C25.125 19.5 25.5 19.875 25.5 20.25V22.5H27.75C28.125 22.5 28.5 22.875 28.5 23.25C28.5 23.6719 28.125 24 27.75 24H25.5V26.25C25.5 26.6719 25.125 27 24.75 27C24.3281 27 24 26.6719 24 26.25V24H21.75C21.3281 24 21 23.6719 21 23.25C21 22.875 21.3281 22.5 21.75 22.5H24V20.25C24 19.875 24.3281 19.5 24.75 19.5ZM14.8125 5.25V6.1875H15.75C16.0312 6.1875 16.3125 6.46875 16.3125 6.75C16.3125 7.07812 16.0312 7.35938 15.75 7.35938H14.8125V8.25C14.8125 8.57812 14.5312 8.85938 14.25 8.85938C13.9219 8.85938 13.6406 8.57812 13.6406 8.25V7.35938H12.75C12.4219 7.35938 12.1406 7.07812 12.1406 6.75C12.1406 6.46875 12.4219 6.1875 12.75 6.1875H13.6406V5.25C13.6406 4.96875 13.9219 4.6875 14.25 4.6875C14.5312 4.6875 14.8125 4.96875 14.8125 5.25Z"
	fill="#6F59E0" />
</svg>