<svg width="32" height="32" viewBox="0 0 32 32" fill="none" xmlns="http://www.w3.org/2000/svg">
	<path d="M12 10.5V13.5H21V10.5C21 8.01562 18.9844 6 16.5 6C14.0156 6 12 8.01562 12 10.5ZM10.5 13.5V10.5C10.5 7.21875 13.1719 4.5 16.5 4.5C19.7812 4.5 22.5 7.21875 22.5 10.5V13.5H23.25C25.3125 13.5 27 15.1875 27 17.25V24.75C27 26.8594 25.3125 28.5 23.25 28.5H9.75C7.64062 28.5 6 26.8594 6 24.75V17.25C6 15.1875 7.64062 13.5 9.75 13.5H10.5ZM7.5 17.25V24.75C7.5 26.0156 8.48438 27 9.75 27H23.25C24.4688 27 25.5 26.0156 25.5 24.75V17.25C25.5 16.0312 24.4688 15 23.25 15H9.75C8.48438 15 7.5 16.0312 7.5 17.25Z"
	fill="#6F59E0" />
</svg>