<svg width="285" height="64" viewBox="0 0 285 64" fill="none" xmlns="http://www.w3.org/2000/svg">
<path d="M59.2091 19.9366L42.7494 3.49686C41.5986 2.3474 39.732 2.3474 38.5811 3.49686L33.7398 8.33435C32.105 9.96715 29.4556 9.96715 27.8208 8.33435L22.9775 3.49686C21.8266 2.3474 19.96 2.3474 18.8092 3.49686L2.34947 19.9366C1.19861 21.0861 1.19861 22.9504 2.34947 24.0999L7.19486 28.9394C8.82965 30.5722 8.82965 33.2184 7.19486 34.8491L2.34947 39.6866C1.19861 40.8361 1.19861 42.7004 2.34947 43.8499L18.8092 60.2896C19.96 61.4391 21.8266 61.4391 22.9775 60.2896L27.8229 55.4521C29.4576 53.8214 32.105 53.8214 33.7398 55.4521L38.5811 60.2876C39.732 61.4371 41.5986 61.4371 42.7494 60.2876L59.2091 43.8479C60.36 42.6984 60.36 40.8341 59.2091 39.6846L54.3638 34.8471C52.729 33.2143 52.729 30.5681 54.3638 28.9373L59.2091 24.0978C60.362 22.9504 60.362 21.0861 59.2091 19.9366ZM51.0555 32.1258C40.8158 33.6794 32.5747 41.9125 31.0253 52.1195L30.7813 52.3673L30.5475 52.1439C29.7769 47.0871 27.4467 42.4933 23.805 38.8621C20.1674 35.2249 15.5701 32.8955 10.5295 32.14L10.2855 31.8963L10.5193 31.6627C20.749 30.099 28.9798 21.8781 30.5455 11.6609L30.7834 11.4273L31.0172 11.6609C31.7939 16.7116 34.1241 21.2993 37.7576 24.9284C41.3912 28.5616 45.9844 30.891 51.0433 31.6607L51.2772 31.8943L51.0555 32.1258Z" fill="black"/>
<path d="M77.9415 9.88672H96.5484C105.727 9.88672 110.442 14.909 110.442 22.1307C110.442 26.0239 108.431 29.6022 105.098 31.298C109.122 32.9308 111.762 36.5092 111.762 41.4705C111.762 48.5663 107.172 53.8405 96.9245 53.8405H77.9395V9.88672H77.9415ZM95.9201 28.0974C100.509 28.0974 102.583 25.7111 102.583 22.4455C102.583 19.3058 100.446 16.9825 96.3593 16.9825H85.8613V28.0953H95.9201V28.0974ZM96.8005 46.7447C101.703 46.7447 103.842 44.3584 103.842 40.9689C103.842 37.4535 101.327 35.0043 96.3613 35.0043H85.8633V46.7447H96.8005Z" fill="black"/>
<path d="M115.909 37.8287C115.909 28.0339 122.698 21.127 132.568 21.127C142.501 21.127 149.29 28.0339 149.29 37.8287C149.29 47.6235 142.501 54.5304 132.568 54.5304C122.698 54.5304 115.909 47.6235 115.909 37.8287ZM132.568 47.8103C137.975 47.8103 141.747 43.7283 141.747 37.8266C141.747 31.925 137.975 27.843 132.568 27.843C127.225 27.843 123.453 31.925 123.453 37.8266C123.453 43.7303 127.225 47.8103 132.568 47.8103Z" fill="black"/>
<path d="M154.38 41.7227V21.8184H161.923V40.027C161.923 45.3641 164.563 47.6874 168.902 47.6874C173.491 47.6874 176.006 44.4217 176.006 39.2735V21.8184H183.55V53.8408H176.006V50.0736C173.869 53.3392 170.223 54.5313 166.576 54.5313C158.467 54.5313 154.38 49.3202 154.38 41.7227Z" fill="black"/>
<path d="M190.587 21.8174H198.131V25.5217C200.394 22.2561 204.039 21.127 207.624 21.127C215.67 21.127 219.757 26.6529 219.757 34.3762V53.8399H212.213V35.6313C212.213 30.6699 209.635 27.9709 205.298 27.9709C200.646 27.9709 198.131 31.0477 198.131 35.9461V53.8399H190.587V21.8174Z" fill="black"/>
<path d="M224.909 37.8288C224.909 27.9081 230.629 21.1271 239.683 21.1271C244.651 21.1271 247.729 23.0726 249.742 25.333V9.25879H257.286V53.838H249.742V50.0708C247.855 52.6459 244.651 54.5285 239.935 54.5285C230.881 54.5305 224.909 47.9993 224.909 37.8288ZM241.255 47.8105C246.599 47.8105 249.931 43.6675 249.931 37.8268C249.931 31.9251 246.599 27.8431 241.255 27.8431C235.659 27.8431 232.455 31.9251 232.455 37.8268C232.453 43.6675 235.659 47.8105 241.255 47.8105Z" fill="black"/>
<path d="M264.323 21.8181H271.867V26.024C274.319 22.005 278.719 20.8128 283.434 21.1885V28.6601C277.021 27.7177 271.867 30.2299 271.867 38.3289V53.8386H264.323V21.8181Z" fill="black"/>
</svg>
